<svg width="42" height="42" viewBox="0 0 42 42" fill="none" xmlns="http://www.w3.org/2000/svg">
<path d="M21 42C32.598 42 42 32.598 42 21C42 9.40202 32.598 0 21 0C9.40202 0 0 9.40202 0 21C0 32.598 9.40202 42 21 42Z" fill="#75C94D"/>
<path d="M12.0037 24.6204C12.8076 26.3131 14.5876 27.5308 16.646 27.5308C16.8006 27.5308 16.9554 27.5236 17.1092 27.5096L17.3717 27.9035V32.6588C17.3717 33.0597 17.6965 33.3845 18.0973 33.3845H23.9026C24.3034 33.3845 24.6282 33.0597 24.6282 32.6588V27.9035L24.8908 27.5096C25.0446 27.5236 25.1993 27.5308 25.354 27.5308C27.4119 27.5308 29.1922 26.3134 29.9963 24.6204C31.8854 24.4964 33.3846 22.9198 33.3846 20.9998C33.3846 19.763 32.7629 18.6358 31.7564 17.9728C31.8739 17.5412 31.9332 17.0972 31.9332 16.6458C31.9332 15.291 31.3958 14.0073 30.4199 13.0312C29.4439 12.0554 28.1602 11.5179 26.8052 11.5179C26.6724 11.5179 26.5405 11.5231 26.4096 11.5332C25.2008 9.72149 23.1715 8.61523 21 8.61523C18.8285 8.61523 16.7991 9.72149 15.5904 11.5332C12.5718 11.3025 10.0667 13.7489 10.0667 16.6458C10.0667 17.0972 10.126 17.5412 10.2438 17.9728C9.23709 18.6358 8.61536 19.763 8.61536 20.9998C8.61536 22.9198 10.1145 24.4964 12.0037 24.6204ZM23.177 27.6837V31.9331H18.823V27.6837C18.823 27.5404 18.7806 27.4004 18.7011 27.2813C18.3141 26.7009 15.9546 23.1613 15.5625 22.573C15.6988 22.2896 15.7977 21.9903 15.8563 21.6813C16.1101 21.6473 16.3599 21.593 16.6046 21.5203L18.9449 25.0307C19.342 25.6265 20.2743 25.3436 20.2743 24.6281V21.6837C20.5145 21.7109 20.7568 21.7255 21 21.7255C21.2431 21.7255 21.4854 21.7109 21.7256 21.6837V24.6281C21.7256 25.3486 22.6597 25.6236 23.0551 25.0307L25.3953 21.5203C25.64 21.593 25.8898 21.6473 26.1437 21.6813C26.2023 21.9901 26.3009 22.2896 26.4375 22.573C26.0454 23.1616 23.6862 26.6999 23.2989 27.2813C23.2193 27.4004 23.177 27.5404 23.177 27.6837ZM17.9881 20.9793C18.2591 21.1213 18.5378 21.2444 18.823 21.3464V22.2314L17.9881 20.9793ZM23.177 21.3464C23.4624 21.2444 23.7408 21.1212 24.0118 20.9793L23.177 22.2314V21.3464ZM11.4082 18.9905C11.7784 18.8363 11.9536 18.4105 11.7988 18.0405C11.6125 17.595 11.518 17.126 11.518 16.6458C11.518 14.6303 13.2471 12.9077 15.3086 12.972C16.2941 13.0153 17.1239 13.3954 17.7602 14.0319C18.0437 14.3153 18.503 14.3153 18.7865 14.0319C19.07 13.7485 19.07 13.2891 18.7865 13.0056C18.3039 12.5228 17.7409 12.1495 17.1281 11.8974C18.0845 10.7506 19.499 10.0666 21 10.0666C22.501 10.0666 23.9154 10.7506 24.8718 11.8974C24.2588 12.1495 23.696 12.5231 23.2135 13.0056C22.9299 13.2891 22.9299 13.7485 23.2135 14.0319C23.4967 14.3153 23.9562 14.3153 24.2396 14.0319C24.952 13.3196 25.8855 12.9692 26.8052 12.9692C28.7982 12.9692 30.482 14.653 30.482 16.6458C30.482 17.126 30.3874 17.5953 30.2013 18.0405C30.0466 18.4104 30.2213 18.8363 30.5917 18.9905C31.4066 19.3299 31.9332 20.1185 31.9332 20.9998C31.9332 22.2002 30.9567 23.1768 29.7563 23.1768C29.695 23.1768 29.633 23.1742 29.5724 23.1693C29.2431 23.1415 28.9367 23.3403 28.8273 23.6523C28.3826 24.9205 27.2074 25.8487 25.8695 26.0417L27.8926 23.0069C28.0548 22.7635 28.0551 22.4465 27.8931 22.2029C27.6562 21.8463 27.531 21.4303 27.531 20.9998C27.531 20.599 27.2061 20.2742 26.8052 20.2742C26.0095 20.2742 25.243 20.0039 24.5884 19.4928C24.3448 19.3026 24.0075 19.2875 23.7478 19.4553C22.9192 19.9911 21.969 20.2742 21 20.2742C20.031 20.2742 19.0808 19.9911 18.2521 19.4553C17.9927 19.2875 17.6552 19.3025 17.4116 19.4928C16.7569 20.0039 15.9904 20.2742 15.1947 20.2742C14.7939 20.2742 14.469 20.599 14.469 20.9998C14.469 21.4303 14.3437 21.8463 14.1068 22.2029C13.9448 22.4465 13.9452 22.7635 14.1073 23.0069L16.1304 26.0417C14.7926 25.8487 13.6173 24.9205 13.1727 23.6523C13.0633 23.3403 12.7569 23.1416 12.4276 23.1693C12.3669 23.1742 12.3049 23.1768 12.2436 23.1768C11.0433 23.1768 10.0667 22.2002 10.0667 20.9998C10.0667 20.1185 10.5934 19.3296 11.4082 18.9905Z" fill="white"/>
</svg>
