<svg width="41" height="42" viewBox="0 0 41 42" fill="none" xmlns="http://www.w3.org/2000/svg">
<path d="M40.473 23.3359L39.8378 22.4683C39.1518 21.5157 39.1349 20.2314 39.8124 19.2788L40.4307 18.4027C41.3792 17.0589 40.9388 15.1876 39.4906 14.4137L38.542 13.9033C37.5087 13.3505 36.9498 12.1937 37.1446 11.037L37.3224 9.9738C37.5934 8.34925 36.3908 6.85229 34.7477 6.78424L33.6806 6.74172C32.5118 6.69068 31.504 5.89968 31.1822 4.76845L30.8857 3.73078C30.4284 2.14876 28.7006 1.33224 27.1931 1.97865L26.2107 2.40393C25.1351 2.87173 23.8901 2.59105 23.1024 1.71498L22.391 0.91547C21.29 -0.317823 19.3759 -0.300813 18.3003 0.940986L17.5974 1.74901C16.8267 2.63357 15.5817 2.93127 14.5061 2.48048L13.5152 2.07221C11.9991 1.44281 10.2799 2.29336 9.84793 3.88388L9.56844 4.92155C9.26355 6.05277 8.26417 6.86079 7.0954 6.92884L6.02827 6.98838C4.39369 7.08194 3.20798 8.59591 3.50441 10.2119L3.6992 11.2666C3.91094 12.4234 3.36043 13.5801 2.34411 14.15L1.40402 14.6688C-0.027299 15.4683 -0.442296 17.348 0.523207 18.6749L1.15841 19.5424C1.84442 20.4951 1.86136 21.7794 1.18381 22.732L0.565554 23.6081C-0.383011 24.9519 0.0573941 26.8231 1.50565 27.5971L2.45421 28.1075C3.48747 28.6603 4.04645 29.8171 3.85165 30.9738L3.6738 32.037C3.40278 33.6615 4.60542 35.1585 6.24847 35.2265L7.3156 35.2691C8.48437 35.3201 9.49222 36.1111 9.81406 37.2423L10.1105 38.28C10.5678 39.862 12.2956 40.6785 13.8031 40.0321L14.7855 39.6069C15.8612 39.1391 17.1061 39.4197 17.8938 40.2958L18.6052 41.0953C19.6978 42.3201 21.6118 42.3031 22.6874 41.0613L23.3904 40.2533C24.1611 39.3687 25.4061 39.071 26.4817 39.5218L27.4726 39.9301C28.9886 40.5595 30.7079 39.7089 31.1398 38.1184L31.4193 37.0807C31.7242 35.9495 32.7236 35.1415 33.8923 35.0734L34.9595 35.0139C36.5941 34.9203 37.7798 33.4064 37.4833 31.7903L37.2885 30.7356C37.0768 29.5789 37.6273 28.4222 38.6436 27.8523L39.5837 27.3335C41.0235 26.5425 41.4385 24.6627 40.473 23.3359Z" fill="#FFF000"/>
<path d="M15.6971 24.9961H13.9393L10.5175 19.3828V24.9961H8.75964V16.4648H10.5175L13.9452 22.0898V16.4648H15.6971V24.9961ZM22.3651 21.2988H18.9901V23.584H22.951V24.9961H17.2323V16.4648H22.9393V17.8887H18.9901V19.9219H22.3651V21.2988ZM30.6268 22.5351L31.7753 16.4648H33.5272L31.6346 24.9961H29.8651L28.4764 19.2891L27.0878 24.9961H25.3182L23.4257 16.4648H25.1776L26.3319 22.5234L27.7382 16.4648H29.2264L30.6268 22.5351Z" fill="#111111"/>
</svg>
